<?xml version="1.0" encoding="utf-8"?><svg xmlns="http://www.w3.org/2000/svg" xmlns:xlink="http://www.w3.org/1999/xlink"><symbol viewBox="0 0 16 16" id="call" xmlns="http://www.w3.org/2000/svg"><path d="M15.0667 16C13.2148 16 11.3852 15.5964 9.57778 14.7893C7.77037 13.9822 6.12593 12.8376 4.64444 11.3556C3.16296 9.87348 2.01867 8.22904 1.21156 6.42222C0.404444 4.61541 0.000592593 2.78578 0 0.933334C0 0.666667 0.0888888 0.444444 0.266667 0.266667C0.444444 0.0888888 0.666667 0 0.933334 0H4.53333C4.74074 0 4.92593 0.0705184 5.08889 0.211555C5.25185 0.352593 5.34815 0.519111 5.37778 0.711111L5.95556 3.82222C5.98519 4.05926 5.97778 4.25926 5.93333 4.42222C5.88889 4.58519 5.80741 4.72593 5.68889 4.84444L3.53333 7.02222C3.82963 7.57037 4.18133 8.09985 4.58844 8.61067C4.99556 9.12148 5.44385 9.61422 5.93333 10.0889C6.39259 10.5481 6.87407 10.9742 7.37778 11.3671C7.88148 11.76 8.41482 12.1191 8.97778 12.4444L11.0667 10.3556C11.2 10.2222 11.3742 10.1224 11.5893 10.056C11.8044 9.98963 12.0154 9.97096 12.2222 10L15.2889 10.6222C15.4963 10.6815 15.6667 10.789 15.8 10.9449C15.9333 11.1007 16 11.2747 16 11.4667V15.0667C16 15.3333 15.9111 15.5556 15.7333 15.7333C15.5556 15.9111 15.3333 16 15.0667 16Z"/></symbol><symbol viewBox="0 0 21 18" id="case" xmlns="http://www.w3.org/2000/svg"><path d="M19 9.66667V17H1.66667V9.66667M10.3333 13V10.3333M13 3.66667C13 3.66667 13 1 10.3333 1C7.66667 1 7.66667 3.66667 7.66667 3.66667M1 3.66667H19.6667V9C19.6667 9 15.6667 11.6667 10.3333 11.6667C5 11.6667 1 9 1 9V3.66667Z" stroke-linecap="round" stroke-linejoin="round"/></symbol><symbol viewBox="0 0 24 25" id="checked" xmlns="http://www.w3.org/2000/svg"><path d="M12 24.5C5.36471 24.5 0 19.1353 0 12.5C0 5.86471 5.36471 0.5 12 0.5C18.6353 0.5 24 5.86471 24 12.5C24 19.1353 18.6353 24.5 12 24.5ZM12 1.91176C6.14118 1.91176 1.41176 6.64118 1.41176 12.5C1.41176 18.3588 6.14118 23.0882 12 23.0882C17.8588 23.0882 22.5882 18.3588 22.5882 12.5C22.5882 6.64118 17.8588 1.91176 12 1.91176Z"/><path d="M10.5884 17.7259L4.44727 11.5847L5.4355 10.5965L10.5884 15.7494L18.5649 7.77295L19.5532 8.76119L10.5884 17.7259Z"/></symbol><symbol viewBox="0 0 16 16" id="header__nav-btn" xmlns="http://www.w3.org/2000/svg"><path d="M0.666722 6.66589C0.489896 6.66589 0.320313 6.59564 0.195279 6.47061C0.0702439 6.34558 0 6.17599 0 5.99917V0.666722C0 0.489896 0.0702439 0.320313 0.195279 0.195279C0.320313 0.0702439 0.489896 0 0.666722 0H6.0005C6.17733 0 6.34691 0.0702439 6.47194 0.195279C6.59698 0.320313 6.66722 0.489896 6.66722 0.666722V5.99917C6.66722 6.17599 6.59698 6.34558 6.47194 6.47061C6.34691 6.59564 6.17733 6.66589 6.0005 6.66589H0.666722ZM10.0008 6.66589C9.82401 6.66589 9.65442 6.59564 9.52939 6.47061C9.40435 6.34558 9.33411 6.17599 9.33411 5.99917V0.666722C9.33411 0.489896 9.40435 0.320313 9.52939 0.195279C9.65442 0.0702439 9.82401 0 10.0008 0H15.3333C15.5101 0 15.6797 0.0702439 15.8047 0.195279C15.9298 0.320313 16 0.489896 16 0.666722V5.99917C16 6.17599 15.9298 6.34558 15.8047 6.47061C15.6797 6.59564 15.5101 6.66589 15.3333 6.66589H10.0008ZM0.666722 16C0.489896 16 0.320313 15.9298 0.195279 15.8047C0.0702439 15.6797 0 15.5101 0 15.3333V9.9995C0 9.82267 0.0702439 9.65309 0.195279 9.52806C0.320313 9.40302 0.489896 9.33278 0.666722 9.33278H6.0005C6.17733 9.33278 6.34691 9.40302 6.47194 9.52806C6.59698 9.65309 6.66722 9.82267 6.66722 9.9995V15.3333C6.66722 15.5101 6.59698 15.6797 6.47194 15.8047C6.34691 15.9298 6.17733 16 6.0005 16H0.666722ZM10.0008 16C9.82401 16 9.65442 15.9298 9.52939 15.8047C9.40435 15.6797 9.33411 15.5101 9.33411 15.3333V9.9995C9.33411 9.82267 9.40435 9.65309 9.52939 9.52806C9.65442 9.40302 9.82401 9.33278 10.0008 9.33278H15.3333C15.5101 9.33278 15.6797 9.40302 15.8047 9.52806C15.9298 9.65309 16 9.82267 16 9.9995V15.3333C16 15.5101 15.9298 15.6797 15.8047 15.8047C15.6797 15.9298 15.5101 16 15.3333 16H10.0008Z"/></symbol><symbol viewBox="0 0 20 18" id="home" xmlns="http://www.w3.org/2000/svg"><path d="M1 5.3988L9.68484 1.05638C9.75911 1.0193 9.84099 1 9.924 1C10.007 1 10.0889 1.0193 10.1632 1.05638L18.848 5.3988M17.0632 8.076V15.2152C17.0632 15.6886 16.8752 16.1425 16.5404 16.4772C16.2057 16.812 15.7518 17 15.2784 17H4.5696C4.09624 17 3.64227 16.812 3.30756 16.4772C2.97284 16.1425 2.7848 15.6886 2.7848 15.2152V8.076" stroke-linecap="round" stroke-linejoin="round"/></symbol><symbol viewBox="0 0 100 100" preserveAspectRatio="xMidYMid" style="shape-rendering:auto;display:block;background:transparent" id="loader" xmlns="http://www.w3.org/2000/svg"><g><circle stroke-width="2" r="0" cy="50" cx="50"><animate begin="0s" calcMode="spline" keySplines="0 0.2 0.8 1" keyTimes="0;1" values="0;40" dur="1s" repeatCount="indefinite" attributeName="r"/><animate begin="0s" calcMode="spline" keySplines="0.2 0 0.8 1" keyTimes="0;1" values="1;0" dur="1s" repeatCount="indefinite" attributeName="opacity"/></circle><circle stroke-width="2" r="0" cy="50" cx="50"><animate begin="-0.5s" calcMode="spline" keySplines="0 0.2 0.8 1" keyTimes="0;1" values="0;40" dur="1s" repeatCount="indefinite" attributeName="r"/><animate begin="-0.5s" calcMode="spline" keySplines="0.2 0 0.8 1" keyTimes="0;1" values="1;0" dur="1s" repeatCount="indefinite" attributeName="opacity"/></circle><g/></g><!--[ldio] generated by https://loading.io--></symbol><symbol viewBox="0 0 32 32" id="logo" xmlns="http://www.w3.org/2000/svg"><circle cx="16" cy="16" r="15.5"/><path d="M9.56717 8H8.00065C8.00065 8 7.99917 15.9553 8.00067 19.2625C8.00216 22.5698 10.5167 24 13.5938 24C16.615 24 19.1885 21.5251 19.1885 19.2625V16.8L18.4 16.2L17.622 16.8V19.5754C17.622 21.5419 15.7198 22.7486 13.5938 22.7486C11.4678 22.7486 9.56717 21.3034 9.56717 19.5754V8Z" stroke-width="1.06666"/><path d="M14.3771 8H12.8105V19.5307H14.3771V15.5084L18.4052 12.3653L22.4334 15.5977V23.5L23.9999 22.3V15.0614L19.5242 11.486L22.4334 9.25139L23.9999 8H21.7621L14.3771 13.7653V8Z" stroke-width="1.06666"/></symbol><symbol viewBox="0 0 24 24" id="privilege-1" xmlns="http://www.w3.org/2000/svg"><path d="M12 24C5.36471 24 0 18.6353 0 12C0 5.36471 5.36471 0 12 0C18.6353 0 24 5.36471 24 12C24 18.6353 18.5647 24 12 24ZM12 1.41176C6.14118 1.41176 1.41176 6.14118 1.41176 12C1.41176 17.8588 6.14118 22.5882 12 22.5882C17.8588 22.5882 22.5882 17.8588 22.5882 12C22.5882 6.14118 17.7882 1.41176 12 1.41176Z"/><path d="M5.08235 20.6824L3.81176 20.1176C4.16471 19.2706 5.29412 18.7765 6.49412 18.2118C7.69412 17.6471 9.17647 17.0118 9.17647 16.2353V15.1765C8.75294 14.8235 8.04706 14.0471 7.90588 12.9176C7.55294 12.5647 6.98824 11.9294 6.98824 11.0824C6.98824 10.5882 7.2 10.1647 7.34118 9.88235C7.2 9.31765 7.05882 8.25882 7.05882 7.41176C7.05882 4.65882 8.96471 2.82353 12 2.82353C12.8471 2.82353 13.9059 3.03529 14.4706 3.67059C15.8118 3.95294 16.9412 5.50588 16.9412 7.41176C16.9412 8.61176 16.7294 9.6 16.5882 10.0941C16.7294 10.3059 16.8706 10.6588 16.8706 11.0824C16.8706 12 16.3765 12.6353 15.9529 12.9176C15.8118 14.0471 15.1765 14.7529 14.7529 15.1059V16.2353C14.7529 16.8706 16.0235 17.3647 17.1529 17.7882C18.4941 18.2824 19.9059 18.8471 20.4 19.9765L19.0588 20.4706C18.8471 19.9059 17.7176 19.4824 16.6588 19.1294C15.1059 18.5647 13.3412 17.9294 13.3412 16.3059V14.4706L13.6941 14.2588C13.6941 14.2588 14.5412 13.6941 14.5412 12.5647V12.0706L14.9647 11.8588C15.0353 11.8588 15.3882 11.6471 15.3882 11.0824C15.3882 10.9412 15.2471 10.7294 15.1765 10.6588L14.8941 10.3765L15.0353 10.0235C15.0353 10.0235 15.3882 8.89412 15.3882 7.48235C15.3882 6.14118 14.6118 5.15294 13.9765 5.15294H13.5529L13.3412 4.8C13.3412 4.51765 12.8471 4.23529 12 4.23529C9.81176 4.23529 8.47059 5.43529 8.47059 7.41176C8.47059 8.32941 8.82353 9.88235 8.82353 9.88235L8.89412 10.2353L8.61176 10.5882C8.54118 10.5882 8.4 10.8 8.4 11.0824C8.4 11.4353 8.82353 11.8588 9.03529 12L9.31765 12.2118V12.5647C9.31765 13.6235 10.2353 14.1882 10.2353 14.2588L10.5882 14.4706V16.3059C10.5882 18 8.75294 18.8471 7.05882 19.5529C6.28235 19.8353 5.22353 20.3294 5.08235 20.6824Z"/></symbol><symbol viewBox="0 0 26 26" id="privilege-2" xmlns="http://www.w3.org/2000/svg"><path d="M14.0003 14.5318C13.5592 15.0346 13.022 15.446 12.4175 15.7443V17.4586C12.4175 17.6102 12.3573 17.7555 12.2501 17.8627C12.1429 17.9698 11.9976 18.03 11.846 18.03H8.41746C8.26591 18.03 8.12056 17.9698 8.0134 17.8627C7.90624 17.7555 7.84603 17.6102 7.84603 17.4586V15.7443C6.64186 15.1433 5.72128 14.0941 5.28185 12.822C4.84243 11.5499 4.91917 10.1563 5.49561 8.94012C6.07205 7.72396 7.10226 6.78223 8.36515 6.31702C9.62804 5.8518 11.023 5.90018 12.2506 6.45176M7.84603 20.8518H12.4175M25 13C25 19.6274 19.6274 25 13 25C6.37258 25 1 19.6274 1 13C1 6.37258 6.37258 1 13 1C19.6274 1 25 6.37258 25 13ZM14.3012 9.92615C13.9 9.85643 13.9 9.28043 14.3012 9.21072C15.0112 9.08652 15.6683 8.754 16.1888 8.25542C16.7094 7.75684 17.0699 7.11473 17.2246 6.41072L17.2486 6.29872C17.3355 5.90215 17.9 5.89986 17.9903 6.29529L18.02 6.42443C18.1797 7.12572 18.5432 7.76412 19.0648 8.2593C19.5864 8.75448 20.2428 9.08431 20.9515 9.20729C21.3549 9.27815 21.3549 9.85643 20.9515 9.92729C20.243 10.0505 19.5869 10.3804 19.0655 10.8756C18.5441 11.3707 18.1807 12.009 18.0212 12.7101L17.9915 12.8393C17.9012 13.2347 17.3366 13.2324 17.2497 12.8359L17.2269 12.725C17.072 12.0207 16.7112 11.3783 16.1902 10.8797C15.6692 10.3811 15.0116 10.0499 14.3012 9.92615Z" stroke-width="1.14286" stroke-linecap="round" stroke-linejoin="round"/></symbol><symbol viewBox="0 0 24 24" id="privilege-3" xmlns="http://www.w3.org/2000/svg"><path d="M17.3846 9.23077C16.691 9.23077 16.0257 8.95522 15.5353 8.46474C15.0448 7.97426 14.7692 7.30903 14.7692 6.61538C14.7692 5.92174 14.4937 5.25651 14.0032 4.76603C13.5127 4.27555 12.8475 4 12.1538 4H11.8462C11.1525 4 10.4873 4.27555 9.9968 4.76603C9.50632 5.25651 9.23077 5.92174 9.23077 6.61538C9.23077 7.30903 8.95522 7.97426 8.46474 8.46474C7.97426 8.95522 7.30903 9.23077 6.61538 9.23077C5.92174 9.23077 5.25651 9.50632 4.76603 9.9968C4.27555 10.4873 4 11.1525 4 11.8462V12.1538C4 12.8475 4.27555 13.5127 4.76603 14.0032C5.25651 14.4937 5.92174 14.7692 6.61538 14.7692C7.30903 14.7692 7.97426 15.0448 8.46474 15.5353C8.95522 16.0257 9.23077 16.691 9.23077 17.3846C9.23077 18.0783 9.50632 18.7435 9.9968 19.234C10.4873 19.7245 11.1525 20 11.8462 20H12.1538C12.8475 20 13.5127 19.7245 14.0032 19.234C14.4937 18.7435 14.7692 18.0783 14.7692 17.3846C14.7692 16.691 15.0448 16.0257 15.5353 15.5353C16.0257 15.0448 16.691 14.7692 17.3846 14.7692C18.0783 14.7692 18.7435 14.4937 19.234 14.0032C19.7245 13.5127 20 12.8475 20 12.1538V11.8462C20 11.1525 19.7245 10.4873 19.234 9.9968C18.7435 9.50632 18.0783 9.23077 17.3846 9.23077Z" stroke-width="0.333333" stroke-linecap="round" stroke-linejoin="round"/><path d="M17.766 13.8482C17.2756 13.3578 17.0001 12.6926 17.0001 11.999C17.0001 11.3054 17.2756 10.6402 17.766 10.1498C18.2564 9.65929 18.5319 8.99411 18.5319 8.30053C18.5319 7.60695 18.2564 6.94177 17.766 6.4513L17.5482 6.23345C17.0577 5.74305 16.3925 5.46755 15.699 5.46755C15.0054 5.46755 14.3402 5.74305 13.8497 6.23345C13.6069 6.47637 13.3185 6.66906 13.0012 6.80053C12.6838 6.932 12.3437 6.99966 12.0002 6.99966C11.6567 6.99966 11.3166 6.932 10.9992 6.80053C10.6819 6.66906 10.3935 6.47637 10.1507 6.23345C9.66019 5.74305 8.99501 5.46755 8.30143 5.46755C7.60785 5.46755 6.94267 5.74305 6.4522 6.23345L6.23435 6.45068C5.74395 6.94115 5.46845 7.60633 5.46845 8.29991C5.46845 8.99349 5.74395 9.65867 6.23435 10.1491C6.47727 10.392 6.66996 10.6804 6.80143 10.9977C6.9329 11.315 7.00056 11.6552 7.00056 11.9987C7.00056 12.3422 6.9329 12.6823 6.80143 12.9997C6.66996 13.317 6.47727 13.6054 6.23435 13.8482C5.74395 14.3387 5.46845 15.0039 5.46845 15.6975C5.46845 16.391 5.74395 17.0562 6.23435 17.5467L6.45158 17.7645C6.94205 18.2549 7.60723 18.5304 8.30081 18.5304C8.9944 18.5304 9.65957 18.2549 10.15 17.7645C10.3929 17.5216 10.6813 17.3289 10.9986 17.1974C11.3159 17.066 11.6561 16.9983 11.9996 16.9983C12.3431 16.9983 12.6832 17.066 13.0006 17.1974C13.3179 17.3289 13.6063 17.5216 13.8491 17.7645C14.3396 18.2549 15.0048 18.5304 15.6984 18.5304C16.3919 18.5304 17.0571 18.2549 17.5476 17.7645L17.7654 17.5473C18.2558 17.0568 18.5313 16.3916 18.5313 15.6981C18.5313 15.0045 18.2564 14.3387 17.766 13.8482Z" stroke-width="0.333333" stroke-linecap="round" stroke-linejoin="round"/><circle cx="12" cy="12" r="11.5"/></symbol><symbol viewBox="0 0 24 24" id="privilege-4" xmlns="http://www.w3.org/2000/svg"><path d="M11 12.295L9.705 11L9 11.705L11 13.705L15 9.705L14.295 9L11 12.295Z"/><path d="M12 19L8.912 17.3535C8.0316 16.8852 7.29536 16.186 6.78232 15.3309C6.26929 14.4759 5.99883 13.4972 6 12.5V6C6 5.73478 6.10536 5.48043 6.2929 5.29289C6.48043 5.10536 6.73479 5 7 5H17C17.2652 5 17.5196 5.10536 17.7071 5.29289C17.8946 5.48043 18 5.73478 18 6V12.5C18.0012 13.4972 17.7307 14.4759 17.2177 15.3309C16.7046 16.186 15.9684 16.8852 15.088 17.3535L12 19ZM7 6V12.5C6.99945 13.3158 7.22094 14.1165 7.64074 14.816C8.06054 15.5156 8.66282 16.0877 9.383 16.471L12 17.8665L14.617 16.4715C15.3373 16.0881 15.9396 15.5159 16.3594 14.8163C16.7792 14.1167 17.0006 13.3159 17 12.5V6H7Z"/><circle cx="12" cy="12" r="11.5"/></symbol><symbol viewBox="0 0 18 16" id="reviews" xmlns="http://www.w3.org/2000/svg"><path d="M8.61538 2.46154L9.792 4.74031L12.3077 5.10585L10.4615 6.76923L11.0769 9.23077L8.61538 7.84615L6.15385 9.23077L6.76923 6.76923L4.92308 5.10585L7.50769 4.74031L8.61538 2.46154Z"/><path d="M9.68369 16L8.61538 15.3846L11.0769 11.0769H14.7692C14.9309 11.0772 15.0911 11.0455 15.2405 10.9837C15.3899 10.922 15.5257 10.8313 15.6401 10.717C15.7544 10.6026 15.845 10.4669 15.9068 10.3174C15.9686 10.168 16.0002 10.0078 16 9.84615V2.46154C16.0002 2.29984 15.9686 2.13969 15.9068 1.99026C15.845 1.84082 15.7544 1.70505 15.6401 1.59071C15.5257 1.47638 15.3899 1.38573 15.2405 1.32396C15.0911 1.2622 14.9309 1.23053 14.7692 1.23077H2.46154C2.29984 1.23053 2.13969 1.2622 1.99026 1.32396C1.84082 1.38573 1.70505 1.47638 1.59071 1.59071C1.47638 1.70505 1.38573 1.84082 1.32396 1.99026C1.2622 2.13969 1.23053 2.29984 1.23077 2.46154V9.84615C1.23053 10.0078 1.2622 10.168 1.32396 10.3174C1.38573 10.4669 1.47638 10.6026 1.59071 10.717C1.70505 10.8313 1.84082 10.922 1.99026 10.9837C2.13969 11.0455 2.29984 11.0772 2.46154 11.0769H8V12.3077H2.46154C1.8087 12.3077 1.1826 12.0484 0.720968 11.5867C0.25934 11.1251 0 10.499 0 9.84615V2.46154C0 1.8087 0.25934 1.1826 0.720968 0.720968C1.1826 0.25934 1.8087 0 2.46154 0H14.7692C15.4221 0 16.0482 0.25934 16.5098 0.720968C16.9714 1.1826 17.2308 1.8087 17.2308 2.46154V9.84615C17.2308 10.499 16.9714 11.1251 16.5098 11.5867C16.0482 12.0484 15.4221 12.3077 14.7692 12.3077H11.7938L9.68369 16Z"/></symbol><symbol viewBox="0 0 20 18" id="service" xmlns="http://www.w3.org/2000/svg"><path d="M16.4816 12.3005C19.9936 7.84719 19.0452 3.43123 16.5225 1.88369C14.1385 0.421481 12.0577 1.01081 10.8079 1.94947L9.88879 2.63746M16.4816 12.3005C15.639 13.3698 14.5394 14.44 13.1421 15.4738C11.7688 16.4916 11.0817 17 9.88879 17C8.69591 17 8.0097 16.4916 6.63549 15.4738C-0.580447 10.1334 0.127102 3.80278 3.25507 1.88369C5.63905 0.421481 7.71992 1.01081 8.96969 1.94947L9.88879 2.63746M16.4816 12.3005L11.5706 6.72898C11.473 6.61874 11.3396 6.54664 11.1939 6.52548C11.0483 6.50432 10.8999 6.53548 10.775 6.61343L8.83191 7.82764C8.45086 8.0687 7.99135 8.15307 7.54952 8.06308C7.10769 7.9731 6.71777 7.71573 6.46136 7.34483C6.20495 6.97393 6.1019 6.51825 6.17379 6.07311C6.24567 5.62797 6.48692 5.22788 6.84704 4.95655L9.88879 2.63746" stroke-linecap="round" stroke-linejoin="round"/></symbol><symbol viewBox="0 0 18 18" id="start" xmlns="http://www.w3.org/2000/svg"><path d="M13.3997 11.8464C14.5533 11.9528 15.9661 12.2656 16.9845 13C16.9845 13 17.4029 9.0512 13.7997 8.2M4.59966 11.8464C3.44606 11.9528 2.03326 12.2656 1.01486 13C1.01486 13 0.596461 9.0512 4.19966 8.2M6.99966 14.6C6.99966 14.6 7.33326 16.6 8.99966 17C10.6661 16.6 10.9997 14.6 10.9997 14.6M5.23566 13C2.22366 5.2 6.49006 1.7504 8.99966 1C11.5093 1.7504 15.7757 5.2 12.7637 13C12.3093 12.7504 10.9197 12.2504 8.99966 12.2504C7.07966 12.2504 5.69006 12.7504 5.23566 13ZM10.5997 6.6C10.5997 6.17565 10.4311 5.76869 10.131 5.46863C9.83097 5.16857 9.42401 5 8.99966 5C8.57532 5 8.16835 5.16857 7.86829 5.46863C7.56823 5.76869 7.39966 6.17565 7.39966 6.6C7.39966 7.02435 7.56823 7.43131 7.86829 7.73137C8.16835 8.03143 8.57532 8.2 8.99966 8.2C9.42401 8.2 9.83097 8.03143 10.131 7.73137C10.4311 7.43131 10.5997 7.02435 10.5997 6.6Z" stroke-linecap="round" stroke-linejoin="round"/></symbol><symbol viewBox="0 0 18 16" id="swipe" xmlns="http://www.w3.org/2000/svg"><path d="M14.7213 9.59995V12.4799C14.7213 14.4526 14.075 15.7678 14.0478 15.823C14.029 15.8606 14.0029 15.8941 13.9712 15.9217C13.9394 15.9492 13.9025 15.9703 13.8626 15.9836C13.8227 15.9969 13.7806 16.0022 13.7387 15.9992C13.6967 15.9962 13.6558 15.985 13.6182 15.9662C13.5806 15.9474 13.547 15.9214 13.5195 15.8896C13.4919 15.8578 13.4709 15.8209 13.4576 15.7811C13.4443 15.7412 13.439 15.699 13.442 15.6571C13.445 15.6152 13.4562 15.5742 13.475 15.5366C13.4806 15.5246 14.0814 14.2926 14.0814 12.4799V9.59995C14.0814 9.26048 13.9465 8.93491 13.7065 8.69487C13.4664 8.45483 13.1409 8.31998 12.8014 8.31998C12.4619 8.31998 12.1364 8.45483 11.8963 8.69487C11.6563 8.93491 11.5214 9.26048 11.5214 9.59995V9.91994C11.5214 10.0048 11.4877 10.0862 11.4277 10.1462C11.3677 10.2062 11.2863 10.2399 11.2014 10.2399C11.1166 10.2399 11.0352 10.2062 10.9752 10.1462C10.9152 10.0862 10.8814 10.0048 10.8814 9.91994V8.31998C10.8814 7.98051 10.7466 7.65494 10.5065 7.4149C10.2665 7.17486 9.94094 7.04001 9.60147 7.04001C9.262 7.04001 8.93644 7.17486 8.69639 7.4149C8.45635 7.65494 8.3215 7.98051 8.3215 8.31998V9.27996C8.3215 9.36482 8.28779 9.44621 8.22778 9.50622C8.16777 9.56624 8.08637 9.59995 8.00151 9.59995C7.91664 9.59995 7.83525 9.56624 7.77524 9.50622C7.71523 9.44621 7.68152 9.36482 7.68152 9.27996V3.84009C7.68152 3.50062 7.54666 3.17505 7.30662 2.93501C7.06658 2.69497 6.74101 2.56012 6.40155 2.56012C6.06208 2.56012 5.73651 2.69497 5.49647 2.93501C5.25643 3.17505 5.12158 3.50062 5.12158 3.84009V12.4799C5.12135 12.5492 5.09859 12.6167 5.05672 12.672C5.01485 12.7273 4.95614 12.7675 4.88944 12.7865C4.82274 12.8056 4.75165 12.8024 4.68689 12.7776C4.62214 12.7527 4.56721 12.7075 4.53039 12.6487L3.03603 10.2487C3.03394 10.2457 3.03207 10.2425 3.03043 10.2391C2.86069 9.94507 2.58109 9.73047 2.25314 9.64256C1.92518 9.55464 1.57573 9.60061 1.28167 9.77034C0.987604 9.94008 0.77301 10.2197 0.685095 10.5476C0.59718 10.8756 0.643145 11.225 0.81288 11.5191L3.15762 15.519C3.19246 15.5916 3.19862 15.6747 3.17489 15.7517C3.15115 15.8286 3.09927 15.8938 3.02959 15.9342C2.95991 15.9746 2.87756 15.9873 2.79897 15.9696C2.72039 15.952 2.65135 15.9053 2.60564 15.839L0.259293 11.8399C0.132754 11.6218 0.0504117 11.3809 0.0169662 11.131C-0.0164793 10.8811 -0.000372673 10.627 0.0643668 10.3833C0.195114 9.89118 0.516016 9.47111 0.956477 9.21556C1.39694 8.96 1.92088 8.88988 2.41304 9.02063C2.9052 9.15138 3.32526 9.47228 3.58081 9.91274L4.48159 11.3599V3.84009C4.48159 3.33088 4.68387 2.84253 5.04393 2.48247C5.40399 2.12241 5.89234 1.92013 6.40155 1.92013C6.91075 1.92013 7.3991 2.12241 7.75916 2.48247C8.11922 2.84253 8.3215 3.33088 8.3215 3.84009V6.89041C8.58846 6.65139 8.91697 6.49185 9.26989 6.42983C9.6228 6.36781 9.98603 6.40579 10.3185 6.53947C10.6509 6.67315 10.9393 6.8972 11.1511 7.18627C11.3628 7.47534 11.4894 7.81789 11.5166 8.17518C11.7923 7.92691 12.1341 7.76384 12.5005 7.70569C12.8669 7.64755 13.2423 7.69681 13.5814 7.84754C13.9204 7.99826 14.2085 8.24398 14.4108 8.55498C14.6131 8.86598 14.721 9.22893 14.7213 9.59995ZM17.6013 2.56012H12.6134L14.6277 0.546565C14.6878 0.486521 14.7215 0.405085 14.7215 0.32017C14.7215 0.235256 14.6878 0.153819 14.6277 0.0937757C14.5677 0.0337321 14.4863 0 14.4014 0C14.3164 0 14.235 0.0337321 14.175 0.0937757L11.615 2.65371C11.5853 2.68343 11.5617 2.71872 11.5456 2.75757C11.5295 2.79642 11.5212 2.83806 11.5212 2.88011C11.5212 2.92216 11.5295 2.9638 11.5456 3.00265C11.5617 3.04149 11.5853 3.07678 11.615 3.1065L14.175 5.66644C14.2047 5.69617 14.24 5.71976 14.2788 5.73585C14.3177 5.75194 14.3593 5.76022 14.4014 5.76022C14.4434 5.76022 14.485 5.75194 14.5239 5.73585C14.5627 5.71976 14.598 5.69617 14.6277 5.66644C14.6575 5.63671 14.6811 5.60142 14.6972 5.56257C14.7132 5.52373 14.7215 5.48209 14.7215 5.44005C14.7215 5.398 14.7132 5.35637 14.6972 5.31752C14.6811 5.27868 14.6575 5.24338 14.6277 5.21365L12.6134 3.2001H17.6013C17.6861 3.2001 17.7675 3.16639 17.8275 3.10638C17.8876 3.04637 17.9213 2.96498 17.9213 2.88011C17.9213 2.79524 17.8876 2.71385 17.8275 2.65384C17.7675 2.59383 17.6861 2.56012 17.6013 2.56012Z"/></symbol><symbol viewBox="0 0 17 16" id="wa" xmlns="http://www.w3.org/2000/svg"><path d="M14.1683 2.32804C13.4311 1.58732 12.5531 1.00001 11.5854 0.600331C10.6178 0.200649 9.57987 -0.00341053 8.53216 4.3116e-05C4.14221 4.3116e-05 0.564322 3.56003 0.564322 7.92802C0.564322 9.32802 0.934171 10.688 1.62563 11.888L0.5 16L4.72111 14.896C5.88693 15.528 7.19749 15.864 8.53216 15.864C12.9221 15.864 16.5 12.304 16.5 7.93602C16.5 5.81603 15.6719 3.82403 14.1683 2.32804ZM8.53216 14.52C7.34221 14.52 6.17638 14.2 5.15528 13.6L4.91407 13.456L2.40553 14.112L3.07286 11.68L2.91206 11.432C2.25079 10.3817 1.89974 9.16744 1.89899 7.92802C1.89899 4.29603 4.87387 1.33604 8.52412 1.33604C10.293 1.33604 11.9573 2.02404 13.2035 3.27203C13.8207 3.88312 14.3098 4.61007 14.6424 5.41069C14.975 6.21132 15.1446 7.06969 15.1412 7.93602C15.1573 11.568 12.1824 14.52 8.53216 14.52ZM12.1663 9.59202C11.9653 9.49602 10.9844 9.01602 10.8075 8.94402C10.6226 8.88002 10.494 8.84802 10.3573 9.04002C10.2206 9.24002 9.84271 9.68802 9.73015 9.81602C9.61759 9.95202 9.49698 9.96802 9.29598 9.86402C9.09497 9.76802 8.45176 9.55202 7.69598 8.88002C7.101 8.35202 6.70703 7.70402 6.58643 7.50402C6.47387 7.30402 6.57035 7.20002 6.67487 7.09602C6.76332 7.00802 6.87588 6.86402 6.97236 6.75203C7.06884 6.64003 7.10904 6.55203 7.17337 6.42403C7.23769 6.28803 7.20553 6.17603 7.15729 6.08003C7.10904 5.98403 6.70703 5.00803 6.54623 4.60803C6.38543 4.22403 6.21658 4.27203 6.09598 4.26403H5.71005C5.57337 4.26403 5.36432 4.31203 5.1794 4.51203C5.00251 4.71203 4.48794 5.19203 4.48794 6.16803C4.48794 7.14402 5.20352 8.08802 5.3 8.21602C5.39648 8.35202 6.70703 10.352 8.701 11.208C9.17538 11.416 9.54523 11.536 9.83467 11.624C10.309 11.776 10.7432 11.752 11.0889 11.704C11.4749 11.648 12.2709 11.224 12.4317 10.76C12.6005 10.296 12.6005 9.90402 12.5442 9.81602C12.4879 9.72802 12.3673 9.68802 12.1663 9.59202Z"/></symbol></svg>