<svg width="24" height="24" viewBox="0 0 24 24" fill="none" xmlns="http://www.w3.org/2000/svg">
<rect x="0.5" y="0.5" width="23" height="23" rx="11.5" stroke="#EB3F3F"/>
<path d="M10.6364 7.90929C10.4215 7.90929 10.2088 7.95161 10.0102 8.03385C9.81169 8.11609 9.63129 8.23662 9.47934 8.38858C9.32739 8.54053 9.20685 8.72092 9.12461 8.91946C9.04238 9.118 9.00005 9.33079 9.00005 9.54568C9.00005 9.76057 9.04238 9.97336 9.12461 10.1719C9.20685 10.3704 9.32739 10.5508 9.47934 10.7028C9.63129 10.8547 9.81169 10.9753 10.0102 11.0575C10.2088 11.1397 10.4215 11.1821 10.6364 11.1821C11.0704 11.1821 11.4867 11.0097 11.7935 10.7028C12.1004 10.3959 12.2728 9.97968 12.2728 9.54568C12.2728 9.11168 12.1004 8.69546 11.7935 8.38858C11.4867 8.08169 11.0704 7.90929 10.6364 7.90929ZM7.90912 9.54568C7.90912 8.82235 8.19647 8.12864 8.70794 7.61717C9.21941 7.1057 9.91311 6.81836 10.6364 6.81836C11.3598 6.81836 12.0535 7.1057 12.5649 7.61717C13.0764 8.12864 13.3638 8.82235 13.3638 9.54568C13.3638 10.269 13.0764 10.9627 12.5649 11.4742C12.0535 11.9857 11.3598 12.273 10.6364 12.273C9.91311 12.273 9.21941 11.9857 8.70794 11.4742C8.19647 10.9627 7.90912 10.269 7.90912 9.54568ZM17.2218 8.80821L17.4929 9.28113C17.8254 9.86005 18.0002 10.516 18 11.1836C17.9998 11.8512 17.8246 12.507 17.4918 13.0857L17.2196 13.5587L16.2744 13.0148L16.546 12.5419C16.7837 12.1286 16.9089 11.6601 16.9091 11.1833C16.9093 10.7065 16.7845 10.2379 16.5471 9.82441L16.2754 9.35149L17.2218 8.80821ZM15.5663 9.75841L15.8374 10.2319C16.0037 10.5213 16.0912 10.8492 16.0912 11.1829C16.0912 11.5166 16.0037 11.8445 15.8374 12.1339L15.5647 12.6068L14.6194 12.063L14.8911 11.5901C14.9624 11.466 14.9999 11.3254 14.9999 11.1823C14.9999 11.0393 14.9624 10.8987 14.8911 10.7746L14.62 10.3017L15.5663 9.75841ZM6 16.0912C6 15.3679 6.28734 14.6742 6.79881 14.1627C7.31029 13.6513 8.00399 13.3639 8.72732 13.3639H12.5456C13.2689 13.3639 13.9626 13.6513 14.4741 14.1627C14.9855 14.6742 15.2729 15.3679 15.2729 16.0912V17.1822H14.182V16.0912C14.182 15.6572 14.0096 15.241 13.7027 14.9341C13.3958 14.6273 12.9796 14.4549 12.5456 14.4549H8.72732C8.29332 14.4549 7.8771 14.6273 7.57022 14.9341C7.26333 15.241 7.09093 15.6572 7.09093 16.0912V17.1822H6V16.0912Z" fill="#EB3F3F"/>
</svg>
