<svg width="32" height="32" viewBox="0 0 32 32" fill="none" xmlns="http://www.w3.org/2000/svg">
<circle cx="16" cy="16" r="15.5" stroke="white"/>
<path d="M9.56717 8H8.00065C8.00065 8 7.99917 15.9553 8.00067 19.2625C8.00216 22.5698 10.5167 24 13.5938 24C16.615 24 19.1885 21.5251 19.1885 19.2625V16.8L18.4 16.2L17.622 16.8V19.5754C17.622 21.5419 15.7198 22.7486 13.5938 22.7486C11.4678 22.7486 9.56717 21.3034 9.56717 19.5754V8Z" fill="white" stroke="white" stroke-width="1.06666"/>
<path d="M14.3771 8H12.8105V19.5307H14.3771V15.5084L18.4052 12.3653L22.4334 15.5977V23.5L23.9999 22.3V15.0614L19.5242 11.486L22.4334 9.25139L23.9999 8H21.7621L14.3771 13.7653V8Z" fill="#EB3F3F" stroke="#EB3F3F" stroke-width="1.06666"/>
</svg>
