<svg width="26" height="26" viewBox="0 0 26 26" fill="none" xmlns="http://www.w3.org/2000/svg">
<path d="M14.0003 14.5318C13.5592 15.0346 13.022 15.446 12.4175 15.7443V17.4586C12.4175 17.6102 12.3573 17.7555 12.2501 17.8627C12.1429 17.9698 11.9976 18.03 11.846 18.03H8.41746C8.26591 18.03 8.12056 17.9698 8.0134 17.8627C7.90624 17.7555 7.84603 17.6102 7.84603 17.4586V15.7443C6.64186 15.1433 5.72128 14.0941 5.28185 12.822C4.84243 11.5499 4.91917 10.1563 5.49561 8.94012C6.07205 7.72396 7.10226 6.78223 8.36515 6.31702C9.62804 5.8518 11.023 5.90018 12.2506 6.45176M7.84603 20.8518H12.4175M25 13C25 19.6274 19.6274 25 13 25C6.37258 25 1 19.6274 1 13C1 6.37258 6.37258 1 13 1C19.6274 1 25 6.37258 25 13ZM14.3012 9.92615C13.9 9.85643 13.9 9.28043 14.3012 9.21072C15.0112 9.08652 15.6683 8.754 16.1888 8.25542C16.7094 7.75684 17.0699 7.11473 17.2246 6.41072L17.2486 6.29872C17.3355 5.90215 17.9 5.89986 17.9903 6.29529L18.02 6.42443C18.1797 7.12572 18.5432 7.76412 19.0648 8.2593C19.5864 8.75448 20.2428 9.08431 20.9515 9.20729C21.3549 9.27815 21.3549 9.85643 20.9515 9.92729C20.243 10.0505 19.5869 10.3804 19.0655 10.8756C18.5441 11.3707 18.1807 12.009 18.0212 12.7101L17.9915 12.8393C17.9012 13.2347 17.3366 13.2324 17.2497 12.8359L17.2269 12.725C17.072 12.0207 16.7112 11.3783 16.1902 10.8797C15.6692 10.3811 15.0116 10.0499 14.3012 9.92615Z" stroke="#EB3F3F" stroke-width="1.14286" stroke-linecap="round" stroke-linejoin="round"/>
</svg>
