<svg width="24" height="24" viewBox="0 0 24 24" fill="none" xmlns="http://www.w3.org/2000/svg">
<path d="M12 24C5.36471 24 0 18.6353 0 12C0 5.36471 5.36471 0 12 0C18.6353 0 24 5.36471 24 12C24 18.6353 18.5647 24 12 24ZM12 1.41176C6.14118 1.41176 1.41176 6.14118 1.41176 12C1.41176 17.8588 6.14118 22.5882 12 22.5882C17.8588 22.5882 22.5882 17.8588 22.5882 12C22.5882 6.14118 17.7882 1.41176 12 1.41176Z" fill="#EB3F3F"/>
<path d="M5.08235 20.6824L3.81176 20.1176C4.16471 19.2706 5.29412 18.7765 6.49412 18.2118C7.69412 17.6471 9.17647 17.0118 9.17647 16.2353V15.1765C8.75294 14.8235 8.04706 14.0471 7.90588 12.9176C7.55294 12.5647 6.98824 11.9294 6.98824 11.0824C6.98824 10.5882 7.2 10.1647 7.34118 9.88235C7.2 9.31765 7.05882 8.25882 7.05882 7.41176C7.05882 4.65882 8.96471 2.82353 12 2.82353C12.8471 2.82353 13.9059 3.03529 14.4706 3.67059C15.8118 3.95294 16.9412 5.50588 16.9412 7.41176C16.9412 8.61176 16.7294 9.6 16.5882 10.0941C16.7294 10.3059 16.8706 10.6588 16.8706 11.0824C16.8706 12 16.3765 12.6353 15.9529 12.9176C15.8118 14.0471 15.1765 14.7529 14.7529 15.1059V16.2353C14.7529 16.8706 16.0235 17.3647 17.1529 17.7882C18.4941 18.2824 19.9059 18.8471 20.4 19.9765L19.0588 20.4706C18.8471 19.9059 17.7176 19.4824 16.6588 19.1294C15.1059 18.5647 13.3412 17.9294 13.3412 16.3059V14.4706L13.6941 14.2588C13.6941 14.2588 14.5412 13.6941 14.5412 12.5647V12.0706L14.9647 11.8588C15.0353 11.8588 15.3882 11.6471 15.3882 11.0824C15.3882 10.9412 15.2471 10.7294 15.1765 10.6588L14.8941 10.3765L15.0353 10.0235C15.0353 10.0235 15.3882 8.89412 15.3882 7.48235C15.3882 6.14118 14.6118 5.15294 13.9765 5.15294H13.5529L13.3412 4.8C13.3412 4.51765 12.8471 4.23529 12 4.23529C9.81176 4.23529 8.47059 5.43529 8.47059 7.41176C8.47059 8.32941 8.82353 9.88235 8.82353 9.88235L8.89412 10.2353L8.61176 10.5882C8.54118 10.5882 8.4 10.8 8.4 11.0824C8.4 11.4353 8.82353 11.8588 9.03529 12L9.31765 12.2118V12.5647C9.31765 13.6235 10.2353 14.1882 10.2353 14.2588L10.5882 14.4706V16.3059C10.5882 18 8.75294 18.8471 7.05882 19.5529C6.28235 19.8353 5.22353 20.3294 5.08235 20.6824Z" fill="#EB3F3F"/>
</svg>
