<svg width="18" height="16" viewBox="0 0 18 16" fill="none" xmlns="http://www.w3.org/2000/svg">
<path d="M8.61538 2.46154L9.792 4.74031L12.3077 5.10585L10.4615 6.76923L11.0769 9.23077L8.61538 7.84615L6.15385 9.23077L6.76923 6.76923L4.92308 5.10585L7.50769 4.74031L8.61538 2.46154Z" fill="white"/>
<path d="M9.68369 16L8.61538 15.3846L11.0769 11.0769H14.7692C14.9309 11.0772 15.0911 11.0455 15.2405 10.9837C15.3899 10.922 15.5257 10.8313 15.6401 10.717C15.7544 10.6026 15.845 10.4669 15.9068 10.3174C15.9686 10.168 16.0002 10.0078 16 9.84615V2.46154C16.0002 2.29984 15.9686 2.13969 15.9068 1.99026C15.845 1.84082 15.7544 1.70505 15.6401 1.59071C15.5257 1.47638 15.3899 1.38573 15.2405 1.32396C15.0911 1.2622 14.9309 1.23053 14.7692 1.23077H2.46154C2.29984 1.23053 2.13969 1.2622 1.99026 1.32396C1.84082 1.38573 1.70505 1.47638 1.59071 1.59071C1.47638 1.70505 1.38573 1.84082 1.32396 1.99026C1.2622 2.13969 1.23053 2.29984 1.23077 2.46154V9.84615C1.23053 10.0078 1.2622 10.168 1.32396 10.3174C1.38573 10.4669 1.47638 10.6026 1.59071 10.717C1.70505 10.8313 1.84082 10.922 1.99026 10.9837C2.13969 11.0455 2.29984 11.0772 2.46154 11.0769H8V12.3077H2.46154C1.8087 12.3077 1.1826 12.0484 0.720968 11.5867C0.25934 11.1251 0 10.499 0 9.84615V2.46154C0 1.8087 0.25934 1.1826 0.720968 0.720968C1.1826 0.25934 1.8087 0 2.46154 0H14.7692C15.4221 0 16.0482 0.25934 16.5098 0.720968C16.9714 1.1826 17.2308 1.8087 17.2308 2.46154V9.84615C17.2308 10.499 16.9714 11.1251 16.5098 11.5867C16.0482 12.0484 15.4221 12.3077 14.7692 12.3077H11.7938L9.68369 16Z" fill="white"/>
</svg>
