<svg width="20" height="18" viewBox="0 0 20 18" fill="none" xmlns="http://www.w3.org/2000/svg">
<path d="M16.4816 12.3005C19.9936 7.84719 19.0452 3.43123 16.5225 1.88369C14.1385 0.421481 12.0577 1.01081 10.8079 1.94947L9.88879 2.63746M16.4816 12.3005C15.639 13.3698 14.5394 14.44 13.1421 15.4738C11.7688 16.4916 11.0817 17 9.88879 17C8.69591 17 8.0097 16.4916 6.63549 15.4738C-0.580447 10.1334 0.127102 3.80278 3.25507 1.88369C5.63905 0.421481 7.71992 1.01081 8.96969 1.94947L9.88879 2.63746M16.4816 12.3005L11.5706 6.72898C11.473 6.61874 11.3396 6.54664 11.1939 6.52548C11.0483 6.50432 10.8999 6.53548 10.775 6.61343L8.83191 7.82764C8.45086 8.0687 7.99135 8.15307 7.54952 8.06308C7.10769 7.9731 6.71777 7.71573 6.46136 7.34483C6.20495 6.97393 6.1019 6.51825 6.17379 6.07311C6.24567 5.62797 6.48692 5.22788 6.84704 4.95655L9.88879 2.63746" stroke="white" stroke-linecap="round" stroke-linejoin="round"/>
</svg>
