<svg width="18" height="18" viewBox="0 0 18 18" fill="none" xmlns="http://www.w3.org/2000/svg">
<path d="M13.3997 11.8464C14.5533 11.9528 15.9661 12.2656 16.9845 13C16.9845 13 17.4029 9.0512 13.7997 8.2M4.59966 11.8464C3.44606 11.9528 2.03326 12.2656 1.01486 13C1.01486 13 0.596461 9.0512 4.19966 8.2M6.99966 14.6C6.99966 14.6 7.33326 16.6 8.99966 17C10.6661 16.6 10.9997 14.6 10.9997 14.6M5.23566 13C2.22366 5.2 6.49006 1.7504 8.99966 1C11.5093 1.7504 15.7757 5.2 12.7637 13C12.3093 12.7504 10.9197 12.2504 8.99966 12.2504C7.07966 12.2504 5.69006 12.7504 5.23566 13ZM10.5997 6.6C10.5997 6.17565 10.4311 5.76869 10.131 5.46863C9.83097 5.16857 9.42401 5 8.99966 5C8.57532 5 8.16835 5.16857 7.86829 5.46863C7.56823 5.76869 7.39966 6.17565 7.39966 6.6C7.39966 7.02435 7.56823 7.43131 7.86829 7.73137C8.16835 8.03143 8.57532 8.2 8.99966 8.2C9.42401 8.2 9.83097 8.03143 10.131 7.73137C10.4311 7.43131 10.5997 7.02435 10.5997 6.6Z" stroke="white" stroke-linecap="round" stroke-linejoin="round"/>
</svg>
