<?xml version="1.0" encoding="utf-8"?><svg viewBox="0 0 200 200" xmlns="http://www.w3.org/2000/svg" xmlns:xlink="http://www.w3.org/1999/xlink"><style>:root>svg{display:none}:root>svg:target{display:block}</style><svg fill="none" viewBox="0 0 16 16" id="call" xmlns="http://www.w3.org/2000/svg"><path d="M15.067 16c-1.852 0-3.682-.404-5.49-1.21-1.807-.808-3.451-1.952-4.933-3.434C3.163 9.873 2.02 8.229 1.212 6.422.404 4.615 0 2.786 0 .933 0 .667.089.444.267.267A.905.905 0 0 1 .933 0h3.6c.208 0 .393.07.556.212.163.14.26.307.289.5l.578 3.11c.03.237.022.437-.023.6a.935.935 0 0 1-.244.422L3.533 7.022a10.75 10.75 0 0 0 1.055 1.589c.408.51.856 1.003 1.345 1.478.46.46.941.885 1.445 1.278.503.393 1.037.752 1.6 1.077l2.089-2.088a1.24 1.24 0 0 1 .522-.3c.215-.066.426-.085.633-.056l3.067.622c.207.06.378.167.511.323s.2.33.2.522v3.6a.904.904 0 0 1-.267.666.904.904 0 0 1-.666.267Z" fill="#000"/></svg><svg fill="none" viewBox="0 0 21 18" id="case" xmlns="http://www.w3.org/2000/svg"><path d="M19 9.667V17H1.667V9.667M10.333 13v-2.667M13 3.667S13 1 10.333 1C7.667 1 7.667 3.667 7.667 3.667M1 3.667h18.667V9s-4 2.667-9.334 2.667C5 11.667 1 9 1 9V3.667Z" stroke="#fff" stroke-linecap="round" stroke-linejoin="round"/></svg><svg fill="none" viewBox="0 0 24 25" id="checked" xmlns="http://www.w3.org/2000/svg"><path d="M12 24.5c-6.635 0-12-5.365-12-12S5.365.5 12 .5s12 5.365 12 12-5.365 12-12 12Zm0-22.588A10.574 10.574 0 0 0 1.412 12.5c0 5.859 4.73 10.588 10.588 10.588 5.859 0 10.588-4.73 10.588-10.588 0-5.859-4.73-10.588-10.588-10.588Z" fill="#EB3F3F"/><path d="m10.588 17.726-6.14-6.141.987-.989 5.153 5.153 7.977-7.976.988.988-8.965 8.965Z" fill="#EB3F3F"/></svg><svg fill="none" viewBox="0 0 16 16" id="header__nav-btn" xmlns="http://www.w3.org/2000/svg"><path d="M.667 6.666A.667.667 0 0 1 0 5.999V.667A.667.667 0 0 1 .667 0H6a.667.667 0 0 1 .667.667v5.332A.667.667 0 0 1 6 6.666H.667Zm9.334 0a.667.667 0 0 1-.667-.667V.667A.667.667 0 0 1 10.001 0h5.332A.667.667 0 0 1 16 .667v5.332a.666.666 0 0 1-.667.667h-5.332ZM.667 16A.666.666 0 0 1 0 15.333V10a.667.667 0 0 1 .667-.666H6a.667.667 0 0 1 .667.666v5.334A.667.667 0 0 1 6 16H.667ZM10 16a.666.666 0 0 1-.667-.667V10a.667.667 0 0 1 .667-.666h5.332a.667.667 0 0 1 .667.666v5.334a.666.666 0 0 1-.667.667h-5.332Z" fill="#fff"/></svg><svg fill="none" viewBox="0 0 20 18" id="home" xmlns="http://www.w3.org/2000/svg"><path d="m1 5.399 8.685-4.343a.535.535 0 0 1 .478 0L18.848 5.4m-1.785 2.677v7.14A1.784 1.784 0 0 1 15.278 17H4.57a1.784 1.784 0 0 1-1.785-1.785V8.076" stroke="#fff" stroke-linecap="round" stroke-linejoin="round"/></svg><svg viewBox="0 0 100 100" preserveAspectRatio="xMidYMid" style="shape-rendering:auto;display:block;background:0 0" id="loader" xmlns="http://www.w3.org/2000/svg"><circle stroke-width="2" stroke="#eb3f3f" fill="none" r="0" cy="50" cx="50"><animate begin="0s" calcMode="spline" keySplines="0 0.2 0.8 1" keyTimes="0;1" values="0;40" dur="1s" repeatCount="indefinite" attributeName="r"/><animate begin="0s" calcMode="spline" keySplines="0.2 0 0.8 1" keyTimes="0;1" values="1;0" dur="1s" repeatCount="indefinite" attributeName="opacity"/></circle><circle stroke-width="2" stroke="#fff" fill="none" r="0" cy="50" cx="50"><animate begin="-0.5s" calcMode="spline" keySplines="0 0.2 0.8 1" keyTimes="0;1" values="0;40" dur="1s" repeatCount="indefinite" attributeName="r"/><animate begin="-0.5s" calcMode="spline" keySplines="0.2 0 0.8 1" keyTimes="0;1" values="1;0" dur="1s" repeatCount="indefinite" attributeName="opacity"/></circle></svg><svg fill="none" viewBox="0 0 32 32" id="logo" xmlns="http://www.w3.org/2000/svg"><circle cx="16" cy="16" r="15.5" stroke="#fff"/><path d="M9.567 8H8.001s-.002 7.955 0 11.262C8.002 22.57 10.517 24 13.594 24c3.021 0 5.595-2.475 5.595-4.738V16.8l-.789-.6-.778.6v2.775c0 1.967-1.902 3.174-4.028 3.174-2.126 0-4.027-1.446-4.027-3.174V8Z" fill="#fff" stroke="#fff" stroke-width="1.067"/><path d="M14.377 8H12.81v11.53h1.567v-4.022l4.028-3.143 4.028 3.233V23.5L24 22.3v-7.239l-4.476-3.575 2.91-2.235L24 8h-2.238l-7.385 5.765V8Z" fill="#EB3F3F" stroke="#EB3F3F" stroke-width="1.067"/></svg><svg fill="none" viewBox="0 0 24 24" id="privilege-1" xmlns="http://www.w3.org/2000/svg"><path d="M12 24C5.365 24 0 18.635 0 12S5.365 0 12 0s12 5.365 12 12-5.435 12-12 12Zm0-22.588A10.574 10.574 0 0 0 1.412 12c0 5.859 4.73 10.588 10.588 10.588 5.859 0 10.588-4.73 10.588-10.588 0-5.859-4.8-10.588-10.588-10.588Z" fill="#EB3F3F"/><path d="m5.082 20.682-1.27-.564c.353-.847 1.482-1.341 2.682-1.906s2.682-1.2 2.682-1.977v-1.058c-.423-.354-1.129-1.13-1.27-2.26-.353-.352-.918-.988-.918-1.835 0-.494.212-.917.353-1.2-.141-.564-.282-1.623-.282-2.47 0-2.753 1.906-4.588 4.941-4.588.847 0 1.906.211 2.47.847 1.342.282 2.471 1.835 2.471 3.74 0 1.2-.212 2.189-.353 2.683.141.212.283.565.283.988 0 .918-.494 1.553-.918 1.836a3.376 3.376 0 0 1-1.2 2.188v1.13c0 .635 1.27 1.129 2.4 1.552 1.341.494 2.753 1.06 3.247 2.189l-1.341.494c-.212-.565-1.341-.989-2.4-1.342-1.553-.564-3.318-1.2-3.318-2.823V14.47l.353-.212s.847-.565.847-1.694v-.494l.424-.212c.07 0 .423-.212.423-.777 0-.14-.14-.353-.211-.423l-.283-.283.141-.352s.353-1.13.353-2.542c0-1.34-.776-2.33-1.412-2.33h-.423L13.34 4.8c0-.282-.494-.565-1.341-.565-2.188 0-3.53 1.2-3.53 3.177 0 .917.354 2.47.354 2.47l.07.353-.282.353c-.07 0-.212.212-.212.494 0 .353.424.777.635.918l.283.212v.353c0 1.059.917 1.623.917 1.694l.353.212v1.835c0 1.694-1.835 2.541-3.53 3.247-.776.282-1.834.776-1.976 1.13Z" fill="#EB3F3F"/></svg><svg fill="none" viewBox="0 0 26 26" id="privilege-2" xmlns="http://www.w3.org/2000/svg"><path d="M14 14.532a5.112 5.112 0 0 1-1.582 1.212v1.715a.571.571 0 0 1-.572.571H8.417a.572.572 0 0 1-.571-.571v-1.715a5.143 5.143 0 0 1 4.405-9.292m-4.405 14.4h4.572M25 13c0 6.627-5.373 12-12 12S1 19.627 1 13 6.373 1 13 1s12 5.373 12 12ZM14.301 9.926c-.401-.07-.401-.646 0-.715a3.634 3.634 0 0 0 2.924-2.8l.024-.112c.087-.397.651-.4.741-.004l.03.13a3.646 3.646 0 0 0 2.931 2.782c.404.071.404.65 0 .72a3.645 3.645 0 0 0-2.93 2.783l-.03.13c-.09.395-.654.392-.741-.004l-.023-.111A3.635 3.635 0 0 0 14.3 9.926Z" stroke="#EB3F3F" stroke-width="1.143" stroke-linecap="round" stroke-linejoin="round"/></svg><svg fill="none" viewBox="0 0 24 24" id="privilege-3" xmlns="http://www.w3.org/2000/svg"><path d="M17.385 9.23a2.615 2.615 0 0 1-2.616-2.615A2.615 2.615 0 0 0 12.154 4h-.308a2.615 2.615 0 0 0-2.615 2.615 2.615 2.615 0 0 1-2.616 2.616A2.615 2.615 0 0 0 4 11.846v.308a2.615 2.615 0 0 0 2.615 2.615 2.615 2.615 0 0 1 2.616 2.616A2.615 2.615 0 0 0 11.846 20h.308a2.615 2.615 0 0 0 2.615-2.615 2.615 2.615 0 0 1 2.616-2.616A2.615 2.615 0 0 0 20 12.154v-.308a2.615 2.615 0 0 0-2.615-2.615Z" stroke="#EB3F3F" stroke-width=".333" stroke-linecap="round" stroke-linejoin="round"/><path d="M17.766 13.848a2.615 2.615 0 0 1 0-3.698 2.616 2.616 0 0 0 0-3.699l-.218-.218a2.616 2.616 0 0 0-3.698 0 2.615 2.615 0 0 1-3.7 0 2.616 2.616 0 0 0-3.698 0l-.218.218a2.615 2.615 0 0 0 0 3.698 2.616 2.616 0 0 1 0 3.7 2.616 2.616 0 0 0 0 3.698l.218.218a2.615 2.615 0 0 0 3.698 0 2.617 2.617 0 0 1 3.7 0 2.616 2.616 0 0 0 3.698 0l.217-.218a2.616 2.616 0 0 0 .001-3.699Z" stroke="#EB3F3F" stroke-width=".333" stroke-linecap="round" stroke-linejoin="round"/><circle cx="12" cy="12" r="11.5" stroke="#EB3F3F"/></svg><svg fill="none" viewBox="0 0 24 24" id="privilege-4" xmlns="http://www.w3.org/2000/svg"><path d="M11 12.295 9.705 11 9 11.705l2 2 4-4L14.295 9 11 12.295Z" fill="#EB3F3F"/><path d="m12 19-3.088-1.646A5.49 5.49 0 0 1 6 12.5V6a1 1 0 0 1 1-1h10a1 1 0 0 1 1 1v6.5a5.49 5.49 0 0 1-2.912 4.854L12 19ZM7 6v6.5a4.495 4.495 0 0 0 2.383 3.971L12 17.866l2.617-1.395A4.495 4.495 0 0 0 17 12.5V6H7Z" fill="#EB3F3F"/><circle cx="12" cy="12" r="11.5" stroke="#EB3F3F"/></svg><svg fill="none" viewBox="0 0 18 16" id="reviews" xmlns="http://www.w3.org/2000/svg"><path d="M8.615 2.462 9.792 4.74l2.516.366-1.847 1.663.616 2.462-2.462-1.385-2.461 1.385.615-2.462-1.846-1.663 2.585-.366 1.107-2.278Z" fill="#fff"/><path d="m9.684 16-1.069-.615 2.462-4.308h3.692A1.227 1.227 0 0 0 16 9.847V2.461a1.23 1.23 0 0 0-1.23-1.231H2.461A1.229 1.229 0 0 0 1.23 2.46v7.385a1.229 1.229 0 0 0 1.23 1.23H8v1.232H2.462A2.461 2.461 0 0 1 0 9.846V2.462A2.462 2.462 0 0 1 2.462 0h12.307a2.461 2.461 0 0 1 2.462 2.462v7.384a2.462 2.462 0 0 1-2.462 2.462h-2.975L9.684 16Z" fill="#fff"/></svg><svg fill="none" viewBox="0 0 20 18" id="service" xmlns="http://www.w3.org/2000/svg"><path d="M16.482 12.3c3.512-4.453 2.563-8.869.04-10.416-2.383-1.463-4.464-.873-5.714.065l-.92.688m6.594 9.663c-.843 1.07-1.943 2.14-3.34 3.174C11.77 16.492 11.082 17 9.89 17s-1.88-.508-3.254-1.526C-.58 10.134.127 3.803 3.255 1.884 5.64.42 7.72 1.01 8.97 1.949l.919.688m6.593 9.663L11.57 6.73a.623.623 0 0 0-.796-.116L8.832 7.828a1.747 1.747 0 0 1-1.985-2.871l3.042-2.32" stroke="#fff" stroke-linecap="round" stroke-linejoin="round"/></svg><svg fill="none" viewBox="0 0 18 18" id="start" xmlns="http://www.w3.org/2000/svg"><path d="M13.4 11.846c1.153.107 2.566.42 3.585 1.154 0 0 .418-3.949-3.185-4.8m-9.2 3.646c-1.154.107-2.567.42-3.585 1.154 0 0-.419-3.949 3.185-4.8M7 14.6s.333 2 2 2.4c1.666-.4 2-2.4 2-2.4M5.236 13C2.224 5.2 6.49 1.75 9 1c2.51.75 6.776 4.2 3.764 12-.455-.25-1.844-.75-3.764-.75-1.92 0-3.31.5-3.764.75ZM10.6 6.6a1.6 1.6 0 1 0-3.2 0 1.6 1.6 0 0 0 3.2 0Z" stroke="#fff" stroke-linecap="round" stroke-linejoin="round"/></svg><svg fill="none" viewBox="0 0 18 16" id="swipe" xmlns="http://www.w3.org/2000/svg"><path d="M14.721 9.6v2.88c0 1.973-.646 3.288-.673 3.343a.322.322 0 0 1-.43.143.32.32 0 0 1-.143-.43c.006-.011.606-1.243.606-3.056V9.6a1.28 1.28 0 0 0-2.56 0v.32a.32.32 0 1 1-.64 0v-1.6a1.28 1.28 0 1 0-2.56 0v.96a.32.32 0 0 1-.64 0V3.84a1.28 1.28 0 0 0-2.56 0v8.64a.32.32 0 0 1-.59.169l-1.495-2.4a1.28 1.28 0 1 0-2.223 1.27l2.345 4a.32.32 0 0 1-.552.32l-2.347-4a1.92 1.92 0 0 1 3.322-1.926l.9 1.447V3.84a1.92 1.92 0 1 1 3.84 0v3.05a1.92 1.92 0 0 1 3.196 1.285A1.92 1.92 0 0 1 14.72 9.6Zm2.88-7.04h-4.988L14.628.547a.32.32 0 1 0-.453-.453l-2.56 2.56a.32.32 0 0 0 0 .453l2.56 2.56a.32.32 0 1 0 .453-.453L12.613 3.2h4.988a.32.32 0 0 0 0-.64Z" fill="#EB3F3F"/></svg><svg fill="none" viewBox="0 0 17 16" id="wa" xmlns="http://www.w3.org/2000/svg"><path d="M14.168 2.328A7.93 7.93 0 0 0 8.532 0C4.142 0 .564 3.56.564 7.928c0 1.4.37 2.76 1.062 3.96L.5 16l4.221-1.104a8.002 8.002 0 0 0 3.811.968c4.39 0 7.968-3.56 7.968-7.928 0-2.12-.828-4.112-2.332-5.608ZM8.532 14.52c-1.19 0-2.356-.32-3.377-.92l-.24-.144-2.51.656.668-2.432-.16-.248a6.583 6.583 0 0 1-1.014-3.504c0-3.632 2.975-6.592 6.625-6.592 1.769 0 3.433.688 4.68 1.936a6.541 6.541 0 0 1 1.937 4.664c.016 3.632-2.959 6.584-6.609 6.584Zm3.634-4.928c-.2-.096-1.182-.576-1.359-.648-.184-.064-.313-.096-.45.096a12.5 12.5 0 0 1-.627.776c-.112.136-.233.152-.434.048-.201-.096-.844-.312-1.6-.984-.595-.528-.989-1.176-1.11-1.376-.112-.2-.016-.304.089-.408.088-.088.2-.232.297-.344.097-.112.137-.2.201-.328.065-.136.033-.248-.016-.344a65.62 65.62 0 0 1-.61-1.472c-.162-.384-.33-.336-.451-.344H5.71a.724.724 0 0 0-.53.248c-.177.2-.692.68-.692 1.656 0 .976.716 1.92.812 2.048.096.136 1.407 2.136 3.401 2.992.474.208.844.328 1.134.416.474.152.908.128 1.254.08.386-.056 1.182-.48 1.343-.944.168-.464.168-.856.112-.944-.056-.088-.177-.128-.378-.224Z" fill="#111"/></svg></svg>