<svg width="24" height="25" viewBox="0 0 24 25" fill="none" xmlns="http://www.w3.org/2000/svg">
<path d="M12 24.5C5.36471 24.5 0 19.1353 0 12.5C0 5.86471 5.36471 0.5 12 0.5C18.6353 0.5 24 5.86471 24 12.5C24 19.1353 18.6353 24.5 12 24.5ZM12 1.91176C6.14118 1.91176 1.41176 6.64118 1.41176 12.5C1.41176 18.3588 6.14118 23.0882 12 23.0882C17.8588 23.0882 22.5882 18.3588 22.5882 12.5C22.5882 6.64118 17.8588 1.91176 12 1.91176Z" fill="#EB3F3F"/>
<path d="M10.5884 17.7259L4.44727 11.5847L5.4355 10.5965L10.5884 15.7494L18.5649 7.77295L19.5532 8.76119L10.5884 17.7259Z" fill="#EB3F3F"/>
</svg>
