<svg width="16" height="16" viewBox="0 0 16 16" fill="none" xmlns="http://www.w3.org/2000/svg">
<path d="M15.0667 16C13.2148 16 11.3852 15.5964 9.57778 14.7893C7.77037 13.9822 6.12593 12.8376 4.64444 11.3556C3.16296 9.87348 2.01867 8.22904 1.21156 6.42222C0.404444 4.61541 0.000592593 2.78578 0 0.933334C0 0.666667 0.0888888 0.444444 0.266667 0.266667C0.444444 0.0888888 0.666667 0 0.933334 0H4.53333C4.74074 0 4.92593 0.0705184 5.08889 0.211555C5.25185 0.352593 5.34815 0.519111 5.37778 0.711111L5.95556 3.82222C5.98519 4.05926 5.97778 4.25926 5.93333 4.42222C5.88889 4.58519 5.80741 4.72593 5.68889 4.84444L3.53333 7.02222C3.82963 7.57037 4.18133 8.09985 4.58844 8.61067C4.99556 9.12148 5.44385 9.61422 5.93333 10.0889C6.39259 10.5481 6.87407 10.9742 7.37778 11.3671C7.88148 11.76 8.41482 12.1191 8.97778 12.4444L11.0667 10.3556C11.2 10.2222 11.3742 10.1224 11.5893 10.056C11.8044 9.98963 12.0154 9.97096 12.2222 10L15.2889 10.6222C15.4963 10.6815 15.6667 10.789 15.8 10.9449C15.9333 11.1007 16 11.2747 16 11.4667V15.0667C16 15.3333 15.9111 15.5556 15.7333 15.7333C15.5556 15.9111 15.3333 16 15.0667 16Z" fill="black"/>
</svg>
