<svg width="24" height="24" viewBox="0 0 24 24" fill="none" xmlns="http://www.w3.org/2000/svg">
<path d="M17.3846 9.23077C16.691 9.23077 16.0257 8.95522 15.5353 8.46474C15.0448 7.97426 14.7692 7.30903 14.7692 6.61538C14.7692 5.92174 14.4937 5.25651 14.0032 4.76603C13.5127 4.27555 12.8475 4 12.1538 4H11.8462C11.1525 4 10.4873 4.27555 9.9968 4.76603C9.50632 5.25651 9.23077 5.92174 9.23077 6.61538C9.23077 7.30903 8.95522 7.97426 8.46474 8.46474C7.97426 8.95522 7.30903 9.23077 6.61538 9.23077C5.92174 9.23077 5.25651 9.50632 4.76603 9.9968C4.27555 10.4873 4 11.1525 4 11.8462V12.1538C4 12.8475 4.27555 13.5127 4.76603 14.0032C5.25651 14.4937 5.92174 14.7692 6.61538 14.7692C7.30903 14.7692 7.97426 15.0448 8.46474 15.5353C8.95522 16.0257 9.23077 16.691 9.23077 17.3846C9.23077 18.0783 9.50632 18.7435 9.9968 19.234C10.4873 19.7245 11.1525 20 11.8462 20H12.1538C12.8475 20 13.5127 19.7245 14.0032 19.234C14.4937 18.7435 14.7692 18.0783 14.7692 17.3846C14.7692 16.691 15.0448 16.0257 15.5353 15.5353C16.0257 15.0448 16.691 14.7692 17.3846 14.7692C18.0783 14.7692 18.7435 14.4937 19.234 14.0032C19.7245 13.5127 20 12.8475 20 12.1538V11.8462C20 11.1525 19.7245 10.4873 19.234 9.9968C18.7435 9.50632 18.0783 9.23077 17.3846 9.23077Z" stroke="#EB3F3F" stroke-width="0.333333" stroke-linecap="round" stroke-linejoin="round"/>
<path d="M17.766 13.8482C17.2756 13.3578 17.0001 12.6926 17.0001 11.999C17.0001 11.3054 17.2756 10.6402 17.766 10.1498C18.2564 9.65929 18.5319 8.99411 18.5319 8.30053C18.5319 7.60695 18.2564 6.94177 17.766 6.4513L17.5482 6.23345C17.0577 5.74305 16.3925 5.46755 15.699 5.46755C15.0054 5.46755 14.3402 5.74305 13.8497 6.23345C13.6069 6.47637 13.3185 6.66906 13.0012 6.80053C12.6838 6.932 12.3437 6.99966 12.0002 6.99966C11.6567 6.99966 11.3166 6.932 10.9992 6.80053C10.6819 6.66906 10.3935 6.47637 10.1507 6.23345C9.66019 5.74305 8.99501 5.46755 8.30143 5.46755C7.60785 5.46755 6.94267 5.74305 6.4522 6.23345L6.23435 6.45068C5.74395 6.94115 5.46845 7.60633 5.46845 8.29991C5.46845 8.99349 5.74395 9.65867 6.23435 10.1491C6.47727 10.392 6.66996 10.6804 6.80143 10.9977C6.9329 11.315 7.00056 11.6552 7.00056 11.9987C7.00056 12.3422 6.9329 12.6823 6.80143 12.9997C6.66996 13.317 6.47727 13.6054 6.23435 13.8482C5.74395 14.3387 5.46845 15.0039 5.46845 15.6975C5.46845 16.391 5.74395 17.0562 6.23435 17.5467L6.45158 17.7645C6.94205 18.2549 7.60723 18.5304 8.30081 18.5304C8.9944 18.5304 9.65957 18.2549 10.15 17.7645C10.3929 17.5216 10.6813 17.3289 10.9986 17.1974C11.3159 17.066 11.6561 16.9983 11.9996 16.9983C12.3431 16.9983 12.6832 17.066 13.0006 17.1974C13.3179 17.3289 13.6063 17.5216 13.8491 17.7645C14.3396 18.2549 15.0048 18.5304 15.6984 18.5304C16.3919 18.5304 17.0571 18.2549 17.5476 17.7645L17.7654 17.5473C18.2558 17.0568 18.5313 16.3916 18.5313 15.6981C18.5313 15.0045 18.2564 14.3387 17.766 13.8482Z" stroke="#EB3F3F" stroke-width="0.333333" stroke-linecap="round" stroke-linejoin="round"/>
<circle cx="12" cy="12" r="11.5" stroke="#EB3F3F"/>
</svg>
