<svg width="24" height="24" viewBox="0 0 24 24" fill="none" xmlns="http://www.w3.org/2000/svg">
<path d="M11 12.295L9.705 11L9 11.705L11 13.705L15 9.705L14.295 9L11 12.295Z" fill="#EB3F3F"/>
<path d="M12 19L8.912 17.3535C8.0316 16.8852 7.29536 16.186 6.78232 15.3309C6.26929 14.4759 5.99883 13.4972 6 12.5V6C6 5.73478 6.10536 5.48043 6.2929 5.29289C6.48043 5.10536 6.73479 5 7 5H17C17.2652 5 17.5196 5.10536 17.7071 5.29289C17.8946 5.48043 18 5.73478 18 6V12.5C18.0012 13.4972 17.7307 14.4759 17.2177 15.3309C16.7046 16.186 15.9684 16.8852 15.088 17.3535L12 19ZM7 6V12.5C6.99945 13.3158 7.22094 14.1165 7.64074 14.816C8.06054 15.5156 8.66282 16.0877 9.383 16.471L12 17.8665L14.617 16.4715C15.3373 16.0881 15.9396 15.5159 16.3594 14.8163C16.7792 14.1167 17.0006 13.3159 17 12.5V6H7Z" fill="#EB3F3F"/>
<circle cx="12" cy="12" r="11.5" stroke="#EB3F3F"/>
</svg>
