<svg width="18" height="16" viewBox="0 0 18 16" fill="none" xmlns="http://www.w3.org/2000/svg">
<path d="M14.7213 9.59995V12.4799C14.7213 14.4526 14.075 15.7678 14.0478 15.823C14.029 15.8606 14.0029 15.8941 13.9712 15.9217C13.9394 15.9492 13.9025 15.9703 13.8626 15.9836C13.8227 15.9969 13.7806 16.0022 13.7387 15.9992C13.6967 15.9962 13.6558 15.985 13.6182 15.9662C13.5806 15.9474 13.547 15.9214 13.5195 15.8896C13.4919 15.8578 13.4709 15.8209 13.4576 15.7811C13.4443 15.7412 13.439 15.699 13.442 15.6571C13.445 15.6152 13.4562 15.5742 13.475 15.5366C13.4806 15.5246 14.0814 14.2926 14.0814 12.4799V9.59995C14.0814 9.26048 13.9465 8.93491 13.7065 8.69487C13.4664 8.45483 13.1409 8.31998 12.8014 8.31998C12.4619 8.31998 12.1364 8.45483 11.8963 8.69487C11.6563 8.93491 11.5214 9.26048 11.5214 9.59995V9.91994C11.5214 10.0048 11.4877 10.0862 11.4277 10.1462C11.3677 10.2062 11.2863 10.2399 11.2014 10.2399C11.1166 10.2399 11.0352 10.2062 10.9752 10.1462C10.9152 10.0862 10.8814 10.0048 10.8814 9.91994V8.31998C10.8814 7.98051 10.7466 7.65494 10.5065 7.4149C10.2665 7.17486 9.94094 7.04001 9.60147 7.04001C9.262 7.04001 8.93644 7.17486 8.69639 7.4149C8.45635 7.65494 8.3215 7.98051 8.3215 8.31998V9.27996C8.3215 9.36482 8.28779 9.44621 8.22778 9.50622C8.16777 9.56624 8.08637 9.59995 8.00151 9.59995C7.91664 9.59995 7.83525 9.56624 7.77524 9.50622C7.71523 9.44621 7.68152 9.36482 7.68152 9.27996V3.84009C7.68152 3.50062 7.54666 3.17505 7.30662 2.93501C7.06658 2.69497 6.74101 2.56012 6.40155 2.56012C6.06208 2.56012 5.73651 2.69497 5.49647 2.93501C5.25643 3.17505 5.12158 3.50062 5.12158 3.84009V12.4799C5.12135 12.5492 5.09859 12.6167 5.05672 12.672C5.01485 12.7273 4.95614 12.7675 4.88944 12.7865C4.82274 12.8056 4.75165 12.8024 4.68689 12.7776C4.62214 12.7527 4.56721 12.7075 4.53039 12.6487L3.03603 10.2487C3.03394 10.2457 3.03207 10.2425 3.03043 10.2391C2.86069 9.94507 2.58109 9.73047 2.25314 9.64256C1.92518 9.55464 1.57573 9.60061 1.28167 9.77034C0.987604 9.94008 0.77301 10.2197 0.685095 10.5476C0.59718 10.8756 0.643145 11.225 0.81288 11.5191L3.15762 15.519C3.19246 15.5916 3.19862 15.6747 3.17489 15.7517C3.15115 15.8286 3.09927 15.8938 3.02959 15.9342C2.95991 15.9746 2.87756 15.9873 2.79897 15.9696C2.72039 15.952 2.65135 15.9053 2.60564 15.839L0.259293 11.8399C0.132754 11.6218 0.0504117 11.3809 0.0169662 11.131C-0.0164793 10.8811 -0.000372673 10.627 0.0643668 10.3833C0.195114 9.89118 0.516016 9.47111 0.956477 9.21556C1.39694 8.96 1.92088 8.88988 2.41304 9.02063C2.9052 9.15138 3.32526 9.47228 3.58081 9.91274L4.48159 11.3599V3.84009C4.48159 3.33088 4.68387 2.84253 5.04393 2.48247C5.40399 2.12241 5.89234 1.92013 6.40155 1.92013C6.91075 1.92013 7.3991 2.12241 7.75916 2.48247C8.11922 2.84253 8.3215 3.33088 8.3215 3.84009V6.89041C8.58846 6.65139 8.91697 6.49185 9.26989 6.42983C9.6228 6.36781 9.98603 6.40579 10.3185 6.53947C10.6509 6.67315 10.9393 6.8972 11.1511 7.18627C11.3628 7.47534 11.4894 7.81789 11.5166 8.17518C11.7923 7.92691 12.1341 7.76384 12.5005 7.70569C12.8669 7.64755 13.2423 7.69681 13.5814 7.84754C13.9204 7.99826 14.2085 8.24398 14.4108 8.55498C14.6131 8.86598 14.721 9.22893 14.7213 9.59995ZM17.6013 2.56012H12.6134L14.6277 0.546565C14.6878 0.486521 14.7215 0.405085 14.7215 0.32017C14.7215 0.235256 14.6878 0.153819 14.6277 0.0937757C14.5677 0.0337321 14.4863 0 14.4014 0C14.3164 0 14.235 0.0337321 14.175 0.0937757L11.615 2.65371C11.5853 2.68343 11.5617 2.71872 11.5456 2.75757C11.5295 2.79642 11.5212 2.83806 11.5212 2.88011C11.5212 2.92216 11.5295 2.9638 11.5456 3.00265C11.5617 3.04149 11.5853 3.07678 11.615 3.1065L14.175 5.66644C14.2047 5.69617 14.24 5.71976 14.2788 5.73585C14.3177 5.75194 14.3593 5.76022 14.4014 5.76022C14.4434 5.76022 14.485 5.75194 14.5239 5.73585C14.5627 5.71976 14.598 5.69617 14.6277 5.66644C14.6575 5.63671 14.6811 5.60142 14.6972 5.56257C14.7132 5.52373 14.7215 5.48209 14.7215 5.44005C14.7215 5.398 14.7132 5.35637 14.6972 5.31752C14.6811 5.27868 14.6575 5.24338 14.6277 5.21365L12.6134 3.2001H17.6013C17.6861 3.2001 17.7675 3.16639 17.8275 3.10638C17.8876 3.04637 17.9213 2.96498 17.9213 2.88011C17.9213 2.79524 17.8876 2.71385 17.8275 2.65384C17.7675 2.59383 17.6861 2.56012 17.6013 2.56012Z" fill="#EB3F3F"/>
</svg>
